<svg
              fill="#00917c"
              height="100px"
              width="100px"
              version="1.1"
              id="Layer_1"
              xmlns="http://www.w3.org/2000/svg"
              xmlns:xlink="http://www.w3.org/1999/xlink"
              viewBox="0 0 480 480"
              xml:space="preserve"
            >
              <g id="SVGRepo_bgCarrier" stroke-width="0"></g>
              <g
                id="SVGRepo_tracerCarrier"
                stroke-linecap="round"
                stroke-linejoin="round"
              ></g>
              <g id="SVGRepo_iconCarrier">
                <g>
                  <g>
                    <g>
                      <path
                        d="M440,210.36V200c0-13.232-10.768-24-24-24h-72c-13.232,0-24,10.768-24,24v8.64c-27.096,3.904-48,27.208-48,55.36v160 c0,10.416,6.712,19.216,16,22.528V456c0,13.232,10.768,24,24,24s24-10.768,24-24v-8h80v8c0,13.232,10.768,24,24,24 s24-10.768,24-24v-9.472c9.288-3.312,16-12.112,16-22.528V264C480,238.688,463.104,217.264,440,210.36z M336,200 c0-4.416,3.592-8,8-8h72c4.408,0,8,3.584,8,8v8h-88V200z M320,456c0,4.416-3.592,8-8,8c-4.408,0-8-3.584-8-8v-8h16V456z M448,456 c0,4.416-3.592,8-8,8c-4.408,0-8-3.584-8-8v-8h16V456z M464,424c0,4.416-3.592,8-8,8h-32h-96h-32c-4.408,0-8-3.584-8-8V264 c0-22.056,17.944-40,40-40h96c22.056,0,40,17.944,40,40V424z"
                      ></path>
                      <path
                        d="M320,256c-4.416,0-8,3.576-8,8v136c0,4.424,3.584,8,8,8c4.416,0,8-3.576,8-8V264C328,259.576,324.416,256,320,256z"
                      ></path>
                      <path
                        d="M376,256c-4.416,0-8,3.576-8,8v136c0,4.424,3.584,8,8,8c4.416,0,8-3.576,8-8V264C384,259.576,380.416,256,376,256z"
                      ></path>
                      <path
                        d="M432,256c-4.416,0-8,3.576-8,8v136c0,4.424,3.584,8,8,8c4.416,0,8-3.576,8-8V264C440,259.576,436.416,256,432,256z"
                      ></path>
                      <path
                        d="M256,176h-8.808c-3.72-18.232-19.872-32-39.192-32h-16V72h16c4.416,0,8-3.576,8-8V48c0-13.232-10.768-24-24-24h-32 c0-13.232-10.768-24-24-24h-16c-13.232,0-24,10.768-24,24H64c-13.232,0-24,10.768-24,24v16c0,4.424,3.584,8,8,8h16v72H40 c-22.056,0-40,17.944-40,40v224c0,19.312,13.768,35.472,32,39.192V456c0,13.232,10.768,24,24,24s24-10.768,24-24v-8h88v8 c0,13.232,10.768,24,24,24s24-10.768,24-24v-8.808c18.232-3.72,32-19.872,32-39.192V192h8c4.416,0,8-3.576,8-8 S260.416,176,256,176z M120,16h16c4.408,0,8,3.584,8,8h-32C112,19.584,115.592,16,120,16z M56,56v-8c0-4.416,3.592-8,8-8h40h48 h40c4.408,0,8,3.584,8,8v8h-16h-24H96H72H56z M176,72v72h-8V72H176z M152,72v72h-48V72H152z M88,72v72h-8V72H88z M64,208 c4.416,0,8-3.576,8-8v-4.688l8,8V264H48v-60.688l8-8V200C56,204.424,59.584,208,64,208z M64,456c0,4.416-3.592,8-8,8 s-8-3.584-8-8v-8h16V456z M200,456c0,4.416-3.592,8-8,8s-8-3.584-8-8v-8h16V456z M232,408c0,13.232-10.768,24-24,24h-32H72H40 c-13.232,0-24-10.768-24-24V184c0-13.232,10.768-24,24-24h16v16c-2.12,0-4.16,0.84-5.656,2.344l-16,16 C32.84,195.84,32,197.872,32,200v72c0,4.424,3.584,8,8,8h48c4.416,0,8-3.576,8-8v-72c0-2.128-0.84-4.16-2.344-5.656l-16-16 C76.16,176.84,74.12,176,72,176v-16h24h64h24h24c13.232,0,24,10.768,24,24V408z"
                      ></path>
                      <path
                        d="M208,192h-56c-4.416,0-8,3.576-8,8s3.584,8,8,8h56c4.416,0,8-3.576,8-8S212.416,192,208,192z"
                      ></path>
                      <path
                        d="M136,240h24c4.416,0,8-3.576,8-8s-3.584-8-8-8h-24c-4.416,0-8,3.576-8,8S131.584,240,136,240z"
                      ></path>
                      <path
                        d="M208,224h-16c-4.416,0-8,3.576-8,8s3.584,8,8,8h16c4.416,0,8-3.576,8-8S212.416,224,208,224z"
                      ></path>
                      <path
                        d="M168,352h-32h-32c-13.232,0-24,10.768-24,24v32c0,4.424,3.584,8,8,8h48h16c13.232,0,24-10.768,24-24v-32 C176,355.576,172.416,352,168,352z M128,400H96v-24c0-4.416,3.592-8,8-8h24V400z M160,392c0,4.416-3.592,8-8,8h-8v-32h16V392z"
                      ></path>
                    </g>
                  </g>
                </g>
              </g>
            </svg>